<?xml version="1.0" standalone="no"?>
<!DOCTYPE svg PUBLIC "-//W3C//DTD SVG 20010904//EN"
 "http://www.w3.org/TR/2001/REC-SVG-20010904/DTD/svg10.dtd">
<svg version="1.0" xmlns="http://www.w3.org/2000/svg"
 width="219.000000pt" height="218.000000pt" viewBox="0 0 219.000000 218.000000"
 preserveAspectRatio="xMidYMid meet">

<g transform="translate(0.000000,218.000000) scale(0.100000,-0.100000)"
fill="#000000" stroke="none">
<path d="M50 1905 l0 -255 255 0 255 0 0 255 0 255 -255 0 -255 0 0 -255z
m438 3 l2 -177 -168 -3 c-93 -2 -177 -2 -186 0 -14 3 -16 24 -16 176 0 95 3
176 7 180 4 3 86 5 182 4 l176 -3 3 -177z"/>
<path d="M200 1905 l0 -105 105 0 105 0 0 105 0 105 -105 0 -105 0 0 -105z"/>
<path d="M630 2015 l0 -145 75 0 75 0 0 -35 0 -35 -75 0 -75 0 0 -75 0 -75 35
0 c33 0 35 2 35 35 0 34 1 35 40 35 l40 0 0 -105 0 -105 35 0 c34 0 35 -1 35
-40 l0 -40 -75 0 -75 0 0 40 c0 39 -1 40 -35 40 -34 0 -35 -1 -35 -40 0 -39 1
-40 35 -40 33 0 35 -2 35 -35 0 -33 -2 -35 -35 -35 -33 0 -35 -2 -35 -35 l0
-35 110 0 110 0 0 70 0 70 35 0 c34 0 35 1 35 40 0 39 1 40 35 40 l35 0 0 -75
0 -75 75 0 75 0 0 35 c0 33 2 35 35 35 l35 0 0 -70 0 -70 75 0 75 0 0 35 c0
33 2 35 35 35 l35 0 0 -110 0 -110 -35 0 c-33 0 -35 -2 -35 -35 0 -34 -1 -35
-40 -35 -39 0 -40 1 -40 35 0 33 -2 35 -35 35 -34 0 -35 1 -35 40 0 39 -1 40
-35 40 -34 0 -35 -1 -35 -40 0 -39 -1 -40 -35 -40 l-35 0 0 75 0 75 -75 0 -75
0 0 -35 c0 -33 -2 -35 -35 -35 -34 0 -35 -1 -35 -40 0 -39 1 -40 35 -40 34 0
35 1 35 40 0 39 1 40 35 40 l35 0 0 -75 0 -75 -35 0 c-33 0 -35 -2 -35 -35 0
-33 2 -35 35 -35 33 0 35 2 35 35 l0 35 145 0 145 0 0 -35 c0 -33 -2 -35 -35
-35 l-35 0 0 -75 0 -75 -35 0 c-34 0 -35 1 -35 40 l0 40 -75 0 -75 0 0 -75 0
-75 -35 0 c-33 0 -35 -2 -35 -35 0 -33 2 -35 35 -35 33 0 35 2 35 35 0 34 1
35 40 35 l40 0 0 -70 0 -70 -75 0 -75 0 0 -40 c0 -39 1 -40 35 -40 33 0 35 -2
35 -35 0 -33 -2 -35 -35 -35 l-35 0 0 -70 0 -70 35 0 c34 0 35 -1 35 -40 l0
-40 -105 0 -105 0 0 40 c0 39 1 40 35 40 33 0 35 2 35 35 0 33 -2 35 -35 35
-33 0 -35 2 -35 35 l0 35 -75 0 -75 0 0 -70 0 -70 35 0 c34 0 35 -1 35 -40 l0
-40 40 0 c39 0 40 -1 40 -35 l0 -35 70 0 70 0 0 -35 c0 -33 2 -35 35 -35 33 0
35 2 35 35 l0 35 110 0 110 0 0 35 c0 33 2 35 35 35 34 0 35 1 35 40 l0 40 40
0 40 0 0 70 0 70 70 0 70 0 0 -35 c0 -33 -2 -35 -35 -35 -33 0 -35 -2 -35 -35
l0 -35 110 0 110 0 0 -40 0 -40 -40 0 c-39 0 -40 -1 -40 -35 0 -34 1 -35 40
-35 39 0 40 -1 40 -35 0 -34 -1 -35 -40 -35 -39 0 -40 -1 -40 -35 l0 -35 75 0
75 0 0 35 c0 33 2 35 35 35 33 0 35 -2 35 -35 0 -33 2 -35 35 -35 33 0 35 2
35 35 l0 35 75 0 75 0 0 -35 c0 -33 2 -35 35 -35 33 0 35 2 35 35 0 33 -2 35
-35 35 -33 0 -35 2 -35 35 l0 35 70 0 70 0 0 35 c0 33 -2 35 -35 35 -34 0 -35
1 -35 40 0 39 1 40 35 40 33 0 35 2 35 35 0 33 -2 35 -35 35 -33 0 -35 2 -35
35 0 33 2 35 35 35 33 0 35 2 35 35 0 33 -2 35 -35 35 -33 0 -35 -2 -35 -35 0
-33 -2 -35 -35 -35 l-35 0 0 75 0 75 -75 0 -75 0 0 35 0 35 -105 0 -105 0 0
35 c0 33 2 35 35 35 33 0 35 2 35 35 0 33 -2 35 -35 35 -33 0 -35 -2 -35 -35
l0 -35 -75 0 -75 0 0 35 c0 33 2 35 35 35 34 0 35 1 35 40 0 39 -1 40 -35 40
-33 0 -35 2 -35 35 0 33 2 35 35 35 l35 0 0 70 0 70 40 0 c39 0 40 -1 40 -35
l0 -35 180 0 180 0 0 -35 0 -35 -75 0 -75 0 0 -35 c0 -33 -2 -35 -35 -35 -33
0 -35 2 -35 35 0 33 -2 35 -35 35 -33 0 -35 -2 -35 -35 0 -33 2 -35 35 -35
l35 0 0 -75 0 -75 180 0 180 0 0 75 0 75 -35 0 -35 0 0 105 0 105 -35 0 c-34
0 -35 1 -35 40 0 39 1 40 35 40 33 0 35 2 35 35 l0 35 -70 0 -70 0 0 35 c0 33
2 35 35 35 l35 0 0 75 0 75 70 0 70 0 0 35 0 35 -145 0 -145 0 0 -35 c0 -33
-2 -35 -35 -35 -33 0 -35 2 -35 35 0 33 -2 35 -35 35 l-35 0 0 -75 0 -75 -35
0 c-33 0 -35 -2 -35 -35 0 -34 -1 -35 -40 -35 -39 0 -40 1 -40 35 0 33 -2 35
-35 35 l-35 0 0 75 0 75 35 0 35 0 0 110 0 110 -35 0 c-33 0 -35 2 -35 35 0
33 2 35 35 35 l35 0 0 110 0 110 -35 0 c-33 0 -35 2 -35 35 l0 35 -70 0 -70 0
0 -35 c0 -34 -1 -35 -40 -35 -39 0 -40 1 -40 35 l0 35 -70 0 -70 0 0 -35 c0
-33 -2 -35 -35 -35 -33 0 -35 2 -35 35 0 34 -1 35 -40 35 -39 0 -40 -1 -40
-35 0 -34 1 -35 40 -35 l40 0 0 -40 0 -40 -75 0 -75 0 0 -35 c0 -33 -2 -35
-35 -35 l-35 0 0 75 0 75 -75 0 -75 0 0 35 c0 33 -2 35 -35 35 l-35 0 0 -145z
m650 35 l0 -40 40 0 40 0 0 40 0 40 70 0 70 0 0 -40 0 -40 -70 0 -70 0 0 -35
0 -35 70 0 70 0 0 -35 c0 -33 -2 -35 -35 -35 l-35 0 0 -75 0 -75 35 0 c33 0
35 -2 35 -35 0 -33 -2 -35 -35 -35 -33 0 -35 -2 -35 -35 0 -33 -2 -35 -35 -35
-33 0 -35 2 -35 35 0 34 -1 35 -40 35 l-40 0 0 -70 0 -70 75 0 75 0 0 -40 c0
-39 1 -40 35 -40 33 0 35 -2 35 -35 0 -33 -2 -35 -35 -35 -33 0 -35 2 -35 35
0 33 -2 35 -35 35 -33 0 -35 -2 -35 -35 0 -34 -1 -35 -40 -35 l-40 0 0 75 0
75 -70 0 -70 0 0 105 0 105 -35 0 -35 0 0 -105 0 -105 -40 0 -40 0 0 145 0
145 40 0 c39 0 40 1 40 35 l0 35 70 0 70 0 0 35 0 35 -70 0 -70 0 0 35 0 35
70 0 70 0 0 40 c0 39 1 40 35 40 34 0 35 -1 35 -40z m-500 -75 c0 -33 2 -35
35 -35 33 0 35 -2 35 -35 0 -33 2 -35 35 -35 33 0 35 2 35 35 0 33 2 35 35 35
33 0 35 -2 35 -35 0 -33 -2 -35 -35 -35 -33 0 -35 -2 -35 -35 0 -33 -2 -35
-35 -35 -33 0 -35 2 -35 35 0 33 -2 35 -35 35 -33 0 -35 2 -35 35 0 34 -1 35
-40 35 -39 0 -40 1 -40 35 0 34 1 35 40 35 39 0 40 -1 40 -35z m140 -360 l0
-105 -35 0 -35 0 0 105 0 105 35 0 35 0 0 -105z m1020 -145 l0 -40 -40 0 -40
0 0 40 0 40 40 0 40 0 0 -40z m-150 -75 c0 -33 2 -35 35 -35 33 0 35 -2 35
-35 l0 -35 -70 0 -70 0 0 -35 0 -35 110 0 110 0 0 -40 0 -40 -145 0 -145 0 0
110 0 110 35 0 c33 0 35 2 35 35 0 33 2 35 35 35 33 0 35 -2 35 -35z m-220
-140 c0 -33 -2 -35 -35 -35 -33 0 -35 2 -35 35 0 33 2 35 35 35 33 0 35 -2 35
-35z m-70 -150 c0 -33 -2 -35 -35 -35 l-35 0 0 -215 0 -215 35 0 c34 0 35 -1
35 -40 0 -39 -1 -40 -35 -40 -34 0 -35 1 -35 40 0 39 -1 40 -35 40 l-35 0 0
-75 0 -75 -40 0 -40 0 0 -70 0 -70 -35 0 c-34 0 -35 -1 -35 -40 l0 -40 -70 0
-70 0 0 40 c0 39 1 40 35 40 33 0 35 2 35 35 l0 35 -75 0 -75 0 0 35 0 35 75
0 75 0 0 145 0 145 35 0 c33 0 35 2 35 35 0 33 2 35 35 35 l35 0 0 75 0 75 40
0 c39 0 40 1 40 35 0 33 2 35 35 35 33 0 35 2 35 35 0 33 2 35 35 35 33 0 35
-2 35 -35z m440 -215 l0 -40 -40 0 -40 0 0 40 0 40 40 0 40 0 0 -40z m-150
-360 l0 -110 -110 0 -110 0 0 110 0 110 110 0 110 0 0 -110z m150 -75 l0 -35
70 0 70 0 0 -35 0 -35 -70 0 -70 0 0 35 c0 34 -1 35 -40 35 -39 0 -40 1 -40
35 0 34 1 35 40 35 39 0 40 -1 40 -35z m-80 -145 l0 -40 40 0 c39 0 40 -1 40
-35 0 -34 -1 -35 -40 -35 -39 0 -40 1 -40 35 0 33 -2 35 -35 35 -33 0 -35 -2
-35 -35 0 -33 -2 -35 -35 -35 -33 0 -35 2 -35 35 0 33 2 35 35 35 34 0 35 1
35 40 0 39 1 40 35 40 34 0 35 -1 35 -40z"/>
<path d="M1280 1905 c0 -34 1 -35 40 -35 39 0 40 1 40 35 0 34 -1 35 -40 35
-39 0 -40 -1 -40 -35z"/>
<path d="M1140 1760 c0 -39 1 -40 35 -40 33 0 35 -2 35 -35 0 -33 2 -35 35
-35 33 0 35 2 35 35 0 34 1 35 40 35 39 0 40 -1 40 -35 0 -33 2 -35 35 -35 33
0 35 2 35 35 0 33 -2 35 -35 35 -34 0 -35 1 -35 40 l0 40 -40 0 -40 0 0 -40
c0 -39 -1 -40 -35 -40 -34 0 -35 1 -35 40 0 39 -1 40 -35 40 -34 0 -35 -1 -35
-40z"/>
<path d="M1280 675 c0 -34 1 -35 40 -35 39 0 40 1 40 35 0 34 -1 35 -40 35
-39 0 -40 -1 -40 -35z"/>
<path d="M1210 525 c0 -33 2 -35 35 -35 33 0 35 2 35 35 0 33 -2 35 -35 35
-33 0 -35 -2 -35 -35z"/>
<path d="M1650 525 c0 -33 2 -35 35 -35 33 0 35 2 35 35 0 33 -2 35 -35 35
-33 0 -35 -2 -35 -35z"/>
<path d="M1650 1905 l0 -255 250 0 250 0 0 255 0 255 -250 0 -250 0 0 -255z
m430 5 l0 -180 -180 0 -180 0 0 180 0 180 180 0 180 0 0 -180z"/>
<path d="M1790 1905 l0 -105 110 0 110 0 0 105 0 105 -110 0 -110 0 0 -105z"/>
<path d="M50 1505 l0 -75 75 0 75 0 0 75 0 75 -75 0 -75 0 0 -75z"/>
<path d="M340 1545 c0 -33 -2 -35 -35 -35 l-35 0 0 -75 0 -75 35 0 35 0 0 -70
0 -70 -35 0 c-33 0 -35 2 -35 35 0 33 -2 35 -35 35 -33 0 -35 2 -35 35 0 34
-1 35 -40 35 -39 0 -40 -1 -40 -35 0 -34 1 -35 40 -35 39 0 40 -1 40 -35 0
-33 2 -35 35 -35 l35 0 0 -75 0 -75 -35 0 c-33 0 -35 2 -35 35 0 34 -1 35 -40
35 l-40 0 0 40 c0 39 -1 40 -35 40 -34 0 -35 -1 -35 -40 0 -39 1 -40 35 -40
33 0 35 -2 35 -35 0 -33 -2 -35 -35 -35 l-35 0 0 -110 0 -110 35 0 35 0 0 110
0 110 40 0 40 0 0 -70 0 -70 35 0 c34 0 35 -1 35 -40 0 -39 1 -40 35 -40 l35
0 0 -105 0 -105 110 0 110 0 0 35 0 35 145 0 145 0 0 70 0 70 35 0 c34 0 35 1
35 40 0 39 -1 40 -35 40 l-35 0 0 70 0 70 -75 0 -75 0 0 75 0 75 -70 0 -70 0
0 35 0 35 -75 0 -75 0 0 110 0 110 75 0 75 0 0 35 0 35 -110 0 -110 0 0 -35z
m220 -365 c0 -39 1 -40 35 -40 33 0 35 -2 35 -35 0 -33 2 -35 35 -35 33 0 35
-2 35 -35 0 -33 -2 -35 -35 -35 l-35 0 0 -110 0 -110 -35 0 c-33 0 -35 -2 -35
-35 0 -33 -2 -35 -35 -35 -33 0 -35 2 -35 35 0 34 -1 35 -40 35 -39 0 -40 1
-40 35 0 34 1 35 40 35 l40 0 0 40 0 40 -110 0 -110 0 0 35 0 35 110 0 110 0
0 35 c0 33 2 35 35 35 33 0 35 2 35 35 l0 35 -110 0 -110 0 0 40 0 40 110 0
110 0 0 -40z"/>
<path d="M560 1035 c0 -33 -2 -35 -35 -35 -33 0 -35 -2 -35 -35 0 -33 2 -35
35 -35 33 0 35 2 35 35 0 33 2 35 35 35 33 0 35 2 35 35 0 33 -2 35 -35 35
-33 0 -35 -2 -35 -35z"/>
<path d="M490 815 c0 -33 2 -35 35 -35 33 0 35 2 35 35 0 33 -2 35 -35 35 -33
0 -35 -2 -35 -35z"/>
<path d="M490 1395 c0 -33 2 -35 35 -35 33 0 35 2 35 35 0 33 -2 35 -35 35
-33 0 -35 -2 -35 -35z"/>
<path d="M2080 1395 c0 -33 2 -35 35 -35 33 0 35 2 35 35 0 33 -2 35 -35 35
-33 0 -35 -2 -35 -35z"/>
<path d="M50 675 l0 -35 110 0 110 0 0 35 0 35 -110 0 -110 0 0 -35z"/>
<path d="M630 600 c0 -39 1 -40 35 -40 34 0 35 1 35 40 0 39 -1 40 -35 40 -34
0 -35 -1 -35 -40z"/>
<path d="M50 310 l0 -250 255 0 255 0 0 250 0 250 -255 0 -255 0 0 -250z m440
0 l0 -180 -185 0 -185 0 0 180 0 180 185 0 185 0 0 -180z"/>
<path d="M200 310 l0 -110 105 0 105 0 0 110 0 110 -105 0 -105 0 0 -110z"/>
<path d="M1360 235 c0 -33 2 -35 35 -35 33 0 35 -2 35 -35 0 -33 -2 -35 -35
-35 -33 0 -35 -2 -35 -35 l0 -35 70 0 70 0 0 105 0 105 -70 0 -70 0 0 -35z"/>
<path d="M630 130 l0 -70 110 0 110 0 0 35 0 35 -75 0 -75 0 0 35 c0 33 -2 35
-35 35 l-35 0 0 -70z"/>
<path d="M1070 95 c0 -33 2 -35 35 -35 33 0 35 2 35 35 0 33 -2 35 -35 35 -33
0 -35 -2 -35 -35z"/>
<path d="M1210 95 c0 -33 2 -35 35 -35 33 0 35 2 35 35 0 33 -2 35 -35 35 -33
0 -35 -2 -35 -35z"/>
</g>
</svg>
